<svg aria-hidden="true" style="position: absolute; width: 0; height: 0; overflow: hidden;" version="1.1" xmlns="http://www.w3.org/2000/svg" xmlns:xlink="http://www.w3.org/1999/xlink">
<defs>
<symbol id="icon-facebook" viewBox="0 0 19 32">
<path fill="none" stroke="#3d76b9" style="stroke: var(--color1, #3d76b9)" stroke-linejoin="round" stroke-linecap="round" stroke-miterlimit="4" stroke-width="2.9091" d="M17.455 1.455h-4.364c-4.017 0-7.273 3.256-7.273 7.273v0 4.364h-4.364v5.818h4.364v11.636h5.818v-11.636h4.364l1.455-5.818h-5.818v-4.364c0-0.803 0.651-1.455 1.455-1.455v0h4.364v-5.818z"></path>
</symbol>
<symbol id="icon-phone-white" viewBox="0 0 32 32">
<path fill="none" stroke="#fff" style="stroke: var(--color2, #fff)" stroke-linejoin="round" stroke-linecap="round" stroke-miterlimit="4" stroke-width="2.56" d="M30.72 23.322v4.431c0 0 0 0.001 0 0.001 0 1.637-1.327 2.964-2.964 2.964-0.092 0-0.184-0.004-0.274-0.012l0.012 0.001c-4.803-0.534-9.142-2.152-12.886-4.604l0.112 0.069c-3.599-2.305-6.571-5.27-8.815-8.749l-0.069-0.114c-2.395-3.64-4.017-7.993-4.531-12.678l-0.012-0.131c-0.008-0.079-0.012-0.172-0.012-0.265 0-0.769 0.294-1.47 0.777-1.995l-0.002 0.002c0.543-0.591 1.319-0.961 2.181-0.963h4.442c0.010-0 0.021-0 0.032-0 1.487 0 2.717 1.097 2.927 2.525l0.002 0.016c0.187 1.418 0.535 2.811 1.037 4.151 0.12 0.309 0.189 0.666 0.189 1.040 0 0.811-0.327 1.545-0.856 2.078l0-0-1.88 1.875c2.147 3.72 5.157 6.724 8.767 8.803l0.115 0.061 1.88-1.875c0.535-0.528 1.271-0.854 2.082-0.854 0.374 0 0.732 0.069 1.061 0.196l-0.020-0.007c1.343 0.499 2.738 0.847 4.16 1.034 1.446 0.209 2.546 1.44 2.546 2.928 0 0.025-0 0.050-0.001 0.075l0-0.004z"></path>
</symbol>
<symbol id="icon-phone" viewBox="0 0 32 32">
<path stroke-linejoin="round" stroke-linecap="round" stroke-miterlimit="4" stroke-width="2.9091" d="M30.383 23.156v4.364c0 0.003 0 0.008 0 0.012 0 1.607-1.302 2.909-2.909 2.909-0.092 0-0.183-0.004-0.273-0.013l0.012 0.001c-4.721-0.526-8.984-2.12-12.662-4.533l0.109 0.067c-3.537-2.271-6.457-5.19-8.66-8.615l-0.068-0.112c-2.354-3.585-3.949-7.87-4.454-12.482l-0.011-0.129c-0.008-0.078-0.012-0.17-0.012-0.262 0-1.606 1.301-2.908 2.906-2.909h4.364c0.008-0 0.019-0 0.029-0 1.463 0 2.674 1.080 2.879 2.486l0.002 0.016c0.185 1.396 0.527 2.768 1.018 4.087 0.118 0.304 0.186 0.656 0.186 1.024 0 0.798-0.321 1.52-0.841 2.046l-1.847 1.847c2.108 3.661 5.066 6.619 8.615 8.667l0.112 0.060 1.847-1.847c0.525-0.52 1.248-0.841 2.046-0.841 0.368 0 0.72 0.068 1.044 0.193l-0.020-0.007c1.319 0.493 2.691 0.835 4.087 1.018 1.422 0.206 2.503 1.417 2.503 2.881 0 0.025-0 0.051-0.001 0.076l0-0.004z"></path>
</symbol>
<symbol id="icon-user" viewBox="0 0 30 32">
<path fill="none" stroke="#1ab0ce" style="stroke: var(--color3, #1ab0ce)" stroke-linejoin="round" stroke-linecap="round" stroke-miterlimit="4" stroke-width="2.1333" d="M26.786 29.867v-3.081c0-0.001 0-0.001 0-0.002 0-3.404-2.759-6.163-6.163-6.163-0.001 0-0.002 0-0.002 0h-12.322c-0.001 0-0.001 0-0.002 0-3.404 0-6.163 2.759-6.163 6.163 0 0.002 0 0.003 0 0.005v-0 3.078M14.46 14.46c3.404 0 6.163-2.759 6.163-6.163s-2.759-6.163-6.163-6.163v0c-3.404 0-6.163 2.759-6.163 6.163s2.759 6.163 6.163 6.163v0z"></path>
</symbol>
</defs>
</svg>
